# xmcd
#
# Track frame offsets:
#	150
#	19145
#	41022
#	66553
#	89399
#	110439
#	140789
#	162275
#	179786
#	197409
#
# Disc length: 2937 seconds
#
# Revision: 15139302
# Processed by: cddbd v1.5.2PL0 Copyright (c) Steve Scherf et al.
# Submitted via: EZCDAudioConverter 8.0.2.1
#
DISCID=930b770a
DTITLE=Minh Thuận - Mùa Hạ Mãi Xa
DYEAR=2008
DGENRE=World Pop
TTITLE0=Radio buồn
TTITLE1=Nửa trái tim yêu người
TTITLE2=Mùa Hạ Mãi Xa
TTITLE3=Tôi muốn nhìn mưa rơi
TTITLE4=Tình không như là mơ
TTITLE5=Tiếng lòng đêm
TTITLE6=Gọi em trong mưa
TTITLE7=Tình không dễ phai
TTITLE8=Lời tình trong đêm
TTITLE9=Bước chân cuối cùng
EXTD=
EXTT0=
EXTT1=
EXTT2=
EXTT3=
EXTT4=
EXTT5=
EXTT6=
EXTT7=
EXTT8=
EXTT9=
PLAYORDER=
